<svg width="568" height="513" viewBox="0 0 568 513" fill="none" xmlns="http://www.w3.org/2000/svg">
<path d="M487.687 182.146C481.529 152.551 511.344 123.819 504.071 94.4758C498.263 71.0064 470.107 59.1456 446.158 62.4728C422.209 65.8 401.44 80.0362 380.964 92.8976C360.489 105.751 337.808 117.986 313.672 116.538C285.387 114.83 261.722 94.7443 243.003 73.4713C224.277 52.1902 207.51 28.1595 183.179 13.6386C155.764 -2.729 119.994 -4.55122 91.4487 9.73379C62.8949 24.0188 42.769 54.2565 41.4837 86.1538C40.2065 117.587 55.7199 146.865 67.9712 175.85C68.0769 176.086 68.1745 176.33 68.2722 176.566C81.6949 208.471 68.1013 245.412 37.1071 260.82C35.4801 261.633 33.8693 262.601 32.2668 263.748C18.9579 273.291 12.9787 290.992 14.9555 307.254C16.9405 323.508 25.9215 338.289 37.4081 349.971C53.7594 366.599 74.5361 377.223 96.9154 384.236C101.308 385.61 105.896 386.31 110.501 386.31H479.78C493.357 386.31 506.259 380.274 514.866 369.772C514.915 369.715 514.964 369.65 515.012 369.593C548.008 329.137 548.488 265.619 516.119 224.668C505.43 211.14 491.201 199.027 487.687 182.146Z" fill="#C6C6F8"/>
<path d="M259.432 440.668H101.59C96.8957 440.668 93.0966 434.77 93.0966 427.497V318.033C93.0966 297.614 96.3506 278.408 102.037 261.462C95.2199 279.612 91.25 300.649 91.25 323.158V432.63C91.25 439.903 95.049 445.801 99.7429 445.801H257.586C261.393 445.801 264.492 441.839 265.574 436.495C264.029 439.033 261.865 440.668 259.432 440.668Z" fill="#83B9FF"/>
<path d="M256.828 209.578H100.498C99.0581 209.578 97.8867 210.749 97.8867 212.189V436.194C97.8867 436.348 98.0087 436.478 98.1633 436.478H259.163C259.317 436.478 259.439 436.348 259.439 436.194V212.189C259.439 210.749 258.268 209.578 256.828 209.578Z" fill="#5891EB"/>
<path d="M198.861 264.424H110.621C109.807 264.424 109.148 265.083 109.148 265.896V392.33C109.148 392.42 109.214 392.493 109.303 392.493H200.171C200.26 392.493 200.333 392.42 200.333 392.33V265.896C200.333 265.083 199.674 264.424 198.861 264.424Z" fill="#83B9FF"/>
<path d="M186.209 209.578H171.111C149.154 209.578 129.508 224.644 116.094 248.381C126.588 239.36 138.652 234.186 151.505 234.186H166.604C207.051 234.186 239.835 285.038 239.835 347.758V436.478H251.59C255.926 436.478 259.44 431.028 259.44 424.308V323.15C259.44 260.429 226.656 209.578 186.209 209.578Z" fill="#83B9FF"/>
<path d="M145.104 445.801H149.44L125.035 372.562L145.104 445.801Z" fill="black" fill-opacity="0.4"/>
<path d="M177.336 292.514H122.181C121.668 292.514 121.262 292.929 121.262 293.433V372.464C121.262 372.521 121.302 372.562 121.359 372.562H178.158C178.215 372.562 178.255 372.521 178.255 372.464V293.433C178.255 292.929 177.84 292.514 177.336 292.514Z" fill="#3771C3"/>
<path d="M174.388 301.063H125.122C124.667 301.063 124.301 301.43 124.301 301.885V372.48C124.301 372.529 124.341 372.562 124.382 372.562H175.12C175.169 372.562 175.209 372.529 175.209 372.48V301.885C175.209 301.43 174.843 301.063 174.388 301.063Z" fill="#5891EB"/>
<path d="M125.035 371.463V372.562L151.295 458.573H279.966V452.236L174.471 377.792L125.035 371.463Z" fill="#3771C3"/>
<path d="M125.035 371.463L151.295 452.236H279.966L174.471 371.463H125.035Z" fill="#5891EB"/>
<path d="M186.834 200.255H170.491C145.33 200.255 122.95 218.502 108.438 246.868C122.975 219.567 144.964 202.167 169.572 202.167H185.907C229.673 202.167 265.15 257.192 265.15 325.07V434.534C265.15 437.422 264.434 439.952 263.417 442.116C265.044 439.724 266.077 436.381 266.077 432.63V323.158C266.077 255.288 230.592 200.255 186.834 200.255Z" fill="#83B9FF"/>
<path d="M125.035 371.463L144.982 432.817C181.427 424.902 222.15 422.323 257.741 435.217L174.471 371.463H125.035Z" fill="#83B9FF"/>
<path d="M152.605 371.463L209.981 452.236H221.558L153.639 371.463H152.605Z" fill="#3771C3"/>
<path d="M404.521 268.711L400.014 254.304L395.906 282.613C398.615 284.395 401.755 279.408 404.521 268.711Z" fill="#252577"/>
<path d="M409.877 231.225C410.845 215.915 410.544 201.54 409.121 191.542L405.191 218.608L409.877 231.225Z" fill="#252577"/>
<path d="M395.859 193.47L399.723 203.867L403.49 178.355C400.968 178.502 398.227 183.985 395.859 193.47Z" fill="#252577"/>
<path d="M413.333 111.698L415.465 97.2906C405.239 90.9372 393.33 118.507 385.016 164.266L386.805 169.074C394.151 129.375 404.491 105.979 413.333 111.698Z" fill="#252577"/>
<path d="M389.18 175.484L391.946 182.936C396.501 160.67 402.423 148.167 407.557 150.827L410.599 130.213C403.522 125.706 395.24 143.855 389.18 175.484Z" fill="#252577"/>
<path d="M386.415 293.953C383.795 272.615 384.243 241.751 387.293 213.621L384.641 205.136C380.053 243.419 379.166 287.478 382.99 317.13L386.415 293.953Z" fill="#252577"/>
<path d="M384.406 361.954L381.754 380.225C392.338 420.379 410.178 401.441 422.86 327.364L419.053 315.169C408.363 375.336 393.639 392.582 384.406 361.954Z" fill="#252577"/>
<path d="M413.34 162.37C417.537 179.437 418.563 212.067 415.536 246.478L420.263 259.217C425.062 208.935 423.151 161.573 416.504 140.552L413.34 162.37Z" fill="#252577"/>
<path d="M390.823 264.098L394.752 237.472L391.042 225.62C389.952 239.36 389.855 253.254 390.823 264.098Z" fill="#252577"/>
<path d="M419.344 120.972C428.439 144.718 431.457 205.893 424.924 271.778L428.87 282.394C436.818 203.371 432.709 131.075 421.556 105.735L419.344 120.972Z" fill="#252577"/>
<path d="M382.363 197.847L380.654 192.38C373.61 245.909 371.763 311.363 377.295 355.69L379.825 338.574C375.009 300.893 376.392 244.851 382.363 197.847Z" fill="#252577"/>
<path d="M414.544 300.763L409.98 286.168C404.155 314.56 396.761 325.159 391.302 314.389L387.723 339.086C395.182 359.286 406.246 344.887 414.544 300.763Z" fill="#252577"/>
<path d="M117.756 129.96H12.2288C10.2927 129.96 8.72266 131.49 8.72266 133.385V286.965C8.72266 288.861 10.2927 290.39 12.2288 290.39H117.756C119.692 290.39 121.262 288.861 121.262 286.965V133.385C121.262 131.49 119.692 129.96 117.756 129.96Z" fill="#0D0D38" fill-opacity="0.701961"/>
<path d="M50.2115 143.326C33.3965 149.419 22.3248 164.892 22.0156 182.756C22.3736 203.281 37.2036 220.657 57.2726 224.098C59.7538 224.529 62.2431 224.733 64.7161 224.733C79.7414 224.733 94.059 217.086 101.885 204.347C111.094 189.346 109.694 170.066 98.3949 156.358C86.9978 142.545 67.1892 137.184 50.2115 143.326ZM91.2931 204.249C82.0599 214.995 66.7905 219.022 53.2865 214.263C40.0509 209.602 30.9885 196.944 30.7363 182.756C31.021 166.657 42.2961 153.153 58.1512 149.948C60.3476 149.509 62.5766 149.289 64.7893 149.289C76.6095 149.289 88.153 155.431 94.36 165.526C101.771 177.599 100.51 193.519 91.2931 204.249Z" fill="white" fill-opacity="0.701961"/>
<path d="M64.992 141.707C60.6154 141.634 60.6316 148.264 64.992 148.345C87.9001 148.728 105.244 170.196 98.8985 192.136C92.0977 215.654 62.3318 224.676 42.8242 209.561C39.44 206.933 34.6078 211.603 38.0327 214.255C61.0384 232.087 96.0025 222.992 105.073 195.113C113.647 168.748 92.7485 142.171 64.992 141.707Z" fill="#FFC94F" fill-opacity="0.701961"/>
<path d="M64.9917 165.909C55.5795 165.909 47.957 173.368 47.957 182.569C47.957 191.77 55.5795 199.221 64.9917 199.221C74.4038 199.221 82.0263 191.77 82.0263 182.569C82.0263 173.368 74.4038 165.909 64.9917 165.909Z" fill="white" fill-opacity="0.701961"/>
<path d="M64.9931 165.486C55.3613 165.486 47.5273 173.149 47.5273 182.569C47.5273 191.99 55.3613 199.653 64.9931 199.653C74.6249 199.653 82.4589 191.99 82.4589 182.569C82.4589 173.149 74.6249 165.486 64.9931 165.486ZM64.9931 198.799C55.8332 198.799 48.3815 191.518 48.3815 182.569C48.3815 173.621 55.8332 166.34 64.9931 166.34C74.1531 166.34 81.6047 173.621 81.6047 182.569C81.6047 191.518 74.1531 198.799 64.9931 198.799Z" fill="black" fill-opacity="0.701961"/>
<path d="M95.8326 233.274H34.0719C33.0713 233.274 32.2578 234.064 32.2578 235.048C32.2578 236.024 33.0713 236.821 34.0719 236.821H95.8326C96.8414 236.821 97.6549 236.024 97.6549 235.048C97.6549 234.064 96.8414 233.274 95.8326 233.274Z" fill="white" fill-opacity="0.701961"/>
<path d="M95.8326 240.694H34.0719C33.0713 240.694 32.2578 241.491 32.2578 242.467C32.2578 243.452 33.0713 244.241 34.0719 244.241H95.8326C96.8414 244.241 97.6549 243.452 97.6549 242.467C97.6549 241.491 96.8414 240.694 95.8326 240.694Z" fill="white" fill-opacity="0.701961"/>
<path d="M95.8326 248.113H34.0719C33.0713 248.113 32.2578 248.91 32.2578 249.894C32.2578 250.871 33.0713 251.668 34.0719 251.668H95.8326C96.8414 251.668 97.6549 250.871 97.6549 249.894C97.6549 248.91 96.8414 248.113 95.8326 248.113Z" fill="white" fill-opacity="0.701961"/>
<path d="M84.3296 269.418C83.1663 269.418 82.2227 270.338 82.2227 271.468C82.2227 272.607 83.1663 273.527 84.3296 273.527C85.4929 273.527 86.4284 272.607 86.4284 271.468C86.4284 270.338 85.4929 269.418 84.3296 269.418Z" fill="white" fill-opacity="0.701961"/>
<path d="M38.0484 269.5C36.8851 269.5 35.9414 270.419 35.9414 271.558C35.9414 272.697 36.8851 273.616 38.0484 273.616C39.2117 273.616 40.1553 272.697 40.1553 271.558C40.1553 270.419 39.2117 269.5 38.0484 269.5Z" fill="white" fill-opacity="0.701961"/>
<path d="M78.3404 270.745H44.1817C43.7749 270.745 43.4414 271.07 43.4414 271.469C43.4414 271.875 43.7749 272.201 44.1817 272.201H78.3404C78.7553 272.201 79.0888 271.875 79.0888 271.469C79.0888 271.07 78.7553 270.745 78.3404 270.745Z" fill="white" fill-opacity="0.701961"/>
<path d="M523.748 145.222V61.4478L479.941 132.621L523.748 145.222Z" fill="#5555B6" fill-opacity="0.8"/>
<path d="M523.75 145.222L567.549 132.621L523.75 61.4478V145.222Z" fill="#8C8CE0" fill-opacity="0.8"/>
<path d="M523.748 210.155V145.222L479.941 132.621L523.748 210.155Z" fill="#252577" fill-opacity="0.8"/>
<path d="M523.75 210.155L567.549 132.621L523.75 145.222V210.155Z" fill="#0D0D38" fill-opacity="0.8"/>
<path d="M164.842 71.3805V29.583L143 65.0922L164.842 71.3805Z" fill="#5555B6" fill-opacity="0.8"/>
<path d="M164.844 71.3805L186.694 65.0922L164.844 29.583V71.3805Z" fill="#8C8CE0" fill-opacity="0.8"/>
<path d="M164.842 103.766V71.3806L143 65.0923L164.842 103.766Z" fill="#252577" fill-opacity="0.8"/>
<path d="M164.844 103.766L186.694 65.0923L164.844 71.3806V103.766Z" fill="#0D0D38" fill-opacity="0.8"/>
<path d="M479.43 332.659H533.088V272.542H479.43V332.659Z" fill="#C4E1FF" fill-opacity="0.8"/>
<path d="M460.785 361.531H514.443V301.413H460.785V361.531Z" fill="#5891EB" fill-opacity="0.8"/>
<path d="M519.18 359.537L535.222 333.587V273.469L519.18 299.42V359.537Z" fill="#3771C3" fill-opacity="0.8"/>
<path d="M460.965 295.759H515.583L531.91 269.809H477.292L460.965 295.759Z" fill="#83B9FF" fill-opacity="0.8"/>
<path d="M456.902 236.74H489.011V200.768H456.902V236.74Z" fill="#C4E1FF" fill-opacity="0.8"/>
<path d="M445.742 254.019H477.851V218.046H445.742V254.019Z" fill="#5891EB" fill-opacity="0.8"/>
<path d="M480.691 252.823L490.283 237.294V201.321L480.691 216.85V252.823Z" fill="#3771C3" fill-opacity="0.8"/>
<path d="M445.855 214.662H478.534L488.304 199.132H455.617L445.855 214.662Z" fill="#83B9FF" fill-opacity="0.8"/>
<path d="M359.504 73.2433H405.572V31.8525H359.504V73.2433Z" fill="#C4E1FF" fill-opacity="0.8"/>
<path d="M343.496 93.1173H389.564V51.7266H343.496V93.1173Z" fill="#5891EB" fill-opacity="0.8"/>
<path d="M393.633 91.7506L407.405 73.8781V32.4873L393.633 50.3517V91.7506Z" fill="#3771C3" fill-opacity="0.8"/>
<path d="M343.652 47.8379H390.55L404.567 29.9653H357.669L343.652 47.8379Z" fill="#83B9FF" fill-opacity="0.8"/>
<path d="M317.477 161.597H341.418V137.453H317.477V161.597Z" fill="#C4E1FF"/>
<path d="M309.156 173.19H333.097V149.045H309.156V173.19Z" fill="#5891EB"/>
<path d="M335.211 172.392L342.362 161.972V137.819L335.211 148.248V172.392Z" fill="#3771C3"/>
<path d="M309.238 146.775H333.611L340.891 136.354H316.519L309.238 146.775Z" fill="#83B9FF"/>
<path d="M274.183 456.653C123.002 456.653 0.457031 469.246 0.457031 484.784C0.457031 500.314 123.002 512.906 274.183 512.906C425.355 512.906 547.908 500.314 547.908 484.784C547.908 469.246 425.355 456.653 274.183 456.653Z" fill="#C6C6F8" fill-opacity="0.498039"/>
<path d="M475.809 382.828L476.175 416.816L495.316 416.612L494.958 382.625L475.809 382.828Z" fill="#9292E5" fill-opacity="0.498039"/>
<path d="M465.906 399.521L466.272 433.509L485.414 433.305L485.048 399.326L465.906 399.521Z" fill="#9292E5" fill-opacity="0.498039"/>
<path d="M330.809 443.596L331.167 477.576L350.308 477.381L349.95 443.393L330.809 443.596Z" fill="#9292E5" fill-opacity="0.498039"/>
<path d="M125.727 439.39L126.093 473.378L145.234 473.175L144.868 439.187L125.727 439.39Z" fill="#9292E5" fill-opacity="0.498039"/>
<path d="M121.406 424.934L121.764 458.922L140.906 458.719L140.548 424.739L121.406 424.934Z" fill="#9292E5" fill-opacity="0.498039"/>
<path d="M85.2148 476.698L85.5728 510.685L104.714 510.482L104.356 476.494L85.2148 476.698Z" fill="#9292E5" fill-opacity="0.498039"/>
<path d="M86.9961 404.28L87.289 431.679L93.3007 431.622L93.0079 404.215L86.9961 404.28Z" fill="#9292E5" fill-opacity="0.498039"/>
<path d="M102.031 346.123L102.324 373.522L108.336 373.465L108.043 346.058L102.031 346.123Z" fill="#9292E5" fill-opacity="0.498039"/>
<path d="M102.77 55.4523L103.054 82.8509L109.066 82.7858L108.781 55.3872L102.77 55.4523Z" fill="#9292E5" fill-opacity="0.498039"/>
<path d="M230.285 122.704L230.578 150.102L236.59 150.045L236.297 122.639L230.285 122.704Z" fill="#9292E5" fill-opacity="0.498039"/>
<path d="M271.035 49.9122L271.32 77.319L277.332 77.2539L277.047 49.8472L271.035 49.9122Z" fill="#9292E5" fill-opacity="0.498039"/>
<path d="M267.152 66.3776L267.437 93.7762L273.449 93.7111L273.164 66.3125L267.152 66.3776Z" fill="#9292E5" fill-opacity="0.498039"/>
<path d="M320.918 54.2398L321.203 81.6384L336.716 81.4758L336.431 54.0771L320.918 54.2398Z" fill="#9292E5" fill-opacity="0.498039"/>
<path d="M450.484 151.217L450.777 178.615L466.291 178.453L466.006 151.054L450.484 151.217Z" fill="#9292E5" fill-opacity="0.498039"/>
<path d="M462.426 138.494L462.719 165.9L478.232 165.73L477.947 138.331L462.426 138.494Z" fill="#9292E5" fill-opacity="0.498039"/>
<path d="M436.973 74.7076L437.266 102.114L452.779 101.944L452.486 74.5449L436.973 74.7076Z" fill="#9292E5" fill-opacity="0.498039"/>
<path d="M190.94 114.83C178.396 117.392 169.911 127.723 171.994 137.908C174.077 148.093 185.929 154.276 198.473 151.705C211.017 149.143 219.494 138.811 217.42 128.626C215.337 118.441 203.485 112.267 190.94 114.83Z" fill="#5A0D0D"/>
<path d="M197.525 167.789L205.359 167.992L206.205 164.502L206.433 153.829L191.074 156.123L197.525 167.789Z" fill="#FFCECE"/>
<path d="M206.318 159.157L206.431 152.861L195.352 159.344C198.89 159.955 203.129 159.759 206.318 159.157Z" fill="#FF92A6"/>
<path d="M191.312 115.269C181.159 117.148 174.619 128.065 176.71 139.666C178.792 151.258 188.709 159.133 198.861 157.262C209.014 155.383 215.554 144.466 213.463 132.865C211.381 121.273 201.456 113.398 191.312 115.269Z" fill="#FFCECE"/>
<path d="M212.138 128.212C208.404 128.993 204.507 128.342 200.692 127.968C195.168 127.439 189.579 127.52 184.072 128.22C181.664 128.521 179.232 128.96 176.978 129.814C176.23 132.897 176.092 136.249 176.71 139.666C178.125 147.532 183.153 153.69 189.409 156.245C186.643 153.275 185.097 149.151 185.382 145.084C187.944 145.824 190.588 146.572 193.248 146.353C194.826 146.231 196.364 145.767 197.918 145.474C202.726 144.579 207.696 145.295 212.553 144.872C213.838 141.228 214.228 137.095 213.464 132.865C213.171 131.238 212.723 129.676 212.138 128.212Z" fill="#FF92A6"/>
<path d="M201.034 145.32C200.781 145.1 200.285 145.067 199.96 145.255L198.203 146.296C197.682 146.597 198.064 147.158 198.764 147.117C199.675 147.052 200.716 146.971 201.497 146.898C202.05 146.849 202.319 146.434 201.985 146.149L201.034 145.32Z" fill="#FF92A6"/>
<path d="M201.847 149.403C199.065 150.347 196.396 149.826 195.217 149.493C194.94 149.412 194.68 149.672 194.761 149.948C194.826 150.168 194.891 150.388 194.956 150.599C196.177 154.423 197.844 154.935 201.261 151.152C201.57 150.794 201.904 150.412 202.245 149.989C202.481 149.704 202.197 149.281 201.847 149.403Z" fill="#7C161B"/>
<path d="M201.847 149.403C199.065 150.347 196.396 149.826 195.217 149.493C194.94 149.412 194.68 149.672 194.761 149.948C194.826 150.168 194.891 150.388 194.956 150.599C195.42 150.738 195.908 150.819 196.38 150.884C197.755 151.095 199.13 151.299 200.521 151.226C200.765 151.209 201.009 151.185 201.261 151.152C201.57 150.794 201.904 150.412 202.245 149.989C202.481 149.704 202.197 149.281 201.847 149.403Z" fill="white"/>
<path d="M204.15 107.647C200.27 101.171 165.77 114.366 171.366 137.599C176.971 160.825 207.233 130.311 209.007 120.418C210.756 110.665 208.023 114.13 204.15 107.647Z" fill="#7F1616"/>
<path d="M203.353 109.745C201.653 110.908 200.644 112.861 200.009 114.83C199.375 116.798 199.049 118.864 198.35 120.809C197.056 124.388 194.461 127.471 191.159 129.359C189.385 130.375 187.335 131.059 185.318 130.758C186.212 128.179 187.254 125.657 188.433 123.2C186.928 125.763 185.065 128.114 182.918 130.164C180.193 132.767 176.979 134.931 174.791 137.99C173.977 139.129 173.335 140.463 172.969 141.838C181.226 156.481 207.363 129.586 209.007 120.418C210.617 111.405 208.413 113.682 205.004 108.956C204.427 109.127 203.865 109.387 203.353 109.745Z" fill="#5A0D0D"/>
<path d="M259.956 189.696L259.923 189.728C255.571 186.295 252.228 183.619 249.649 181.553C241.652 175.118 241.05 174.41 241.05 174.41L229.832 188.915L234.933 192.999L257.849 211.351C258.63 211.977 259.598 211.587 260.208 210.798C263.096 207.08 266.586 196.96 266.537 195.52C266.472 193.69 259.956 189.696 259.956 189.696Z" fill="#FFCECE"/>
<path d="M241.05 174.41L229.832 188.915L234.933 192.999C239.065 189.883 245.459 184.855 249.649 181.553C241.652 175.118 241.05 174.41 241.05 174.41Z" fill="#FF92A6"/>
<path d="M324.255 147.866C322.441 146.963 313.916 146.963 313.916 146.963L296.068 160.703C296.068 160.703 274.624 175.769 258.093 186.296C254.905 188.329 253.286 192.112 254.018 195.822L256.686 209.391C257.304 212.319 259.33 211.847 260.575 210.465L296.954 170.164C303.072 175.232 307.611 165.185 312.403 165.494C317.202 165.795 317.755 161.101 314.566 161.329C312.533 160.556 306.578 163.566 306.187 160.003C304.666 157.856 315.372 150.876 317.658 150.77C324.564 151.64 326.069 148.777 324.255 147.866Z" fill="#FFCECE"/>
<path d="M269.994 200.035C264.422 200.361 259.15 204.005 256.913 209.13C256.848 209.276 256.791 209.423 256.734 209.577C257.393 212.295 259.362 211.815 260.574 210.464L269.994 200.035Z" fill="#FF92A6"/>
<path d="M324.89 148.492C324.142 149.232 322.986 149.59 321.904 149.647C320.473 149.721 319.049 149.395 317.617 149.46C314.168 149.631 311.28 151.998 308.677 154.26C307.164 155.561 305.529 157.107 305.456 159.1C305.431 159.694 305.586 160.345 306.074 160.695C306.188 160.784 306.326 160.849 306.464 160.89C306.326 160.654 306.228 160.361 306.188 160.003C304.667 157.856 315.372 150.876 317.658 150.77C323.361 151.494 325.378 149.664 324.89 148.492Z" fill="#FF92A6"/>
<path d="M220.509 163.892C209.242 170.164 219.435 178.73 219.435 178.73C226.057 190.387 232.524 195.171 232.524 195.171L244.979 176.778C240.497 170.083 226.269 160.687 220.509 163.892Z" fill="#EC4A4A"/>
<path d="M202.078 427.701L188.086 425.024C185.499 429.312 178.356 439.407 178.202 442.181L176.566 445.134C176.566 445.134 180.642 460.037 181.382 462.494C182.114 464.959 182.058 472.923 184.409 477.617C186.76 482.311 188.598 487.932 194.683 484.841C197.221 484.784 198.677 481.27 198.799 475.095C199.076 461.876 197.807 450.747 198.783 444.207C199.751 437.658 202.078 427.701 202.078 427.701Z" fill="#0D0D42"/>
<path d="M202.078 427.701L188.086 425.024C185.499 429.312 178.356 439.407 178.202 442.181L176.566 445.134C176.566 445.134 180.642 460.037 181.382 462.494C182.114 464.959 182.058 472.923 184.409 477.617C186.76 482.311 188.598 487.932 194.683 484.841C197.221 484.784 198.677 481.27 198.799 475.095C199.076 461.876 197.807 450.747 198.783 444.207C199.751 437.658 202.078 427.701 202.078 427.701Z" fill="#FFC94F"/>
<path d="M197.579 479.789C195.798 480.863 193.471 481.269 191.632 480.285C189.094 478.935 188.435 475.664 187.964 472.825C186.141 461.941 182.928 451.3 178.413 441.229C178.291 441.603 178.218 441.92 178.202 442.181L176.566 445.134C176.566 445.134 180.642 460.037 181.382 462.494C182.114 464.959 182.058 472.923 184.409 477.617C186.76 482.311 188.598 487.932 194.683 484.841C196.595 484.8 197.888 482.807 198.466 479.195C198.181 479.406 197.888 479.61 197.579 479.789Z" fill="white"/>
<path d="M190.527 425.488C192.423 434.436 192.577 443.759 190.95 452.764C190.723 454.001 190.479 455.351 191.048 456.482C191.975 458.296 194.432 458.556 196.466 458.41C197.149 458.361 197.857 458.296 198.565 458.296C198.378 452.537 198.256 447.713 198.784 444.206C199.752 437.658 202.079 427.701 202.079 427.701L190.527 425.488Z" fill="white"/>
<path d="M226.653 413.961L224.18 416.271C224.18 416.271 223.48 431.703 223.423 434.266C223.366 436.836 220.869 444.394 221.658 449.592C222.455 454.774 222.471 460.696 229.207 459.614C231.648 460.346 234.113 457.45 236.13 451.609C240.45 439.114 242.662 428.14 245.607 422.21C248.544 416.279 253.815 407.518 253.815 407.518L241.328 400.676C237.554 403.955 227.645 411.366 226.653 413.961Z" fill="white"/>
<path d="M241.313 400.546L241.256 400.595C240.28 401.449 238.848 402.604 237.335 403.832C232.885 407.444 227.337 411.943 226.556 413.895L224.075 416.222V416.263C224.067 416.417 223.375 431.727 223.318 434.265C223.302 435.111 223.001 436.559 222.659 438.227C221.968 441.562 221.024 446.134 221.553 449.608C221.634 450.137 221.707 450.674 221.781 451.21C222.204 454.286 222.635 457.458 224.644 458.955C225.45 459.557 226.458 459.85 227.703 459.85C228.175 459.85 228.671 459.809 229.208 459.728C231.681 460.444 234.178 457.58 236.228 451.65C238.108 446.224 239.596 441.066 240.898 436.519C242.59 430.662 244.038 425.61 245.697 422.258C248.602 416.401 253.857 407.664 253.906 407.575L253.963 407.477L241.378 400.578L241.313 400.546ZM245.51 422.161C243.843 425.528 242.387 430.596 240.694 436.462C239.385 441.001 237.904 446.159 236.033 451.577C234.016 457.401 231.608 460.224 229.24 459.516L229.216 459.508H229.192C227.288 459.817 225.84 459.573 224.766 458.784C222.83 457.344 222.407 454.212 221.992 451.186C221.919 450.641 221.846 450.104 221.764 449.575C221.244 446.134 222.179 441.587 222.871 438.268C223.212 436.592 223.513 435.136 223.53 434.274C223.587 431.8 224.246 417.231 224.286 416.32L226.727 414.034L226.751 413.993C227.475 412.106 233.015 407.607 237.473 403.995C239.019 402.742 240.361 401.652 241.345 400.806L253.67 407.558C253.084 408.526 248.252 416.629 245.51 422.161Z" fill="black"/>
<path d="M226.653 413.961L224.18 416.271C224.18 416.271 223.48 431.703 223.423 434.266C223.366 436.836 220.869 444.394 221.658 449.592C222.455 454.774 222.471 460.696 229.207 459.614C231.648 460.346 234.113 457.45 236.13 451.609C240.45 439.114 242.662 428.14 245.607 422.21C248.544 416.279 253.815 407.518 253.815 407.518L241.328 400.676C237.554 403.955 227.645 411.366 226.653 413.961Z" fill="#FFC94F"/>
<path d="M232.42 454.562C230.379 454.969 228.052 454.57 226.653 453.041C224.709 450.91 225.188 447.607 225.693 444.768C227.572 434.241 228.133 423.487 227.377 412.822C227.019 413.261 226.767 413.643 226.653 413.961L224.18 416.271C224.18 416.271 223.48 431.703 223.423 434.266C223.366 436.836 220.869 444.394 221.658 449.592C222.455 454.774 222.471 460.696 229.207 459.614C231.371 460.265 233.551 458.069 235.422 453.489C234.462 453.969 233.47 454.359 232.42 454.562Z" fill="white"/>
<path d="M243.841 402.051C242.547 410.764 239.619 419.232 235.234 426.871C234.607 427.969 233.924 429.157 234.087 430.41C234.347 432.427 236.576 433.509 238.537 434.046C239.431 434.29 240.391 434.542 241.254 434.908C242.767 429.661 244.093 425.269 245.606 422.21C248.543 416.279 253.814 407.518 253.814 407.518L243.841 402.051Z" fill="white"/>
<path d="M257.957 237.505L192.283 263.187L198.555 340.339C198.734 342.576 198.621 344.83 198.214 347.034L184.051 423.544C184.051 423.544 189.892 435.819 205.584 428.953L230.2 340.396C230.461 339.428 230.672 338.452 230.827 337.459L238.287 289.227L271.827 345.245L237.693 399.944C237.693 399.944 237.904 403.995 244.014 408.592C249.773 412.919 252.97 413.017 252.97 413.017L295.858 360.237C301.162 353.713 302.455 344.805 299.234 337.036L257.957 237.505Z" fill="#252577"/>
<path d="M184.707 419.972L203.377 359.993H207.607L205.118 353.998H213.163L205.549 347.059C205.549 347.059 193.501 277.814 215.303 272.933C229.921 269.662 250.104 255.678 261.818 246.819L257.954 237.505L192.281 263.187L198.553 340.339C198.732 342.576 198.618 344.83 198.211 347.034L184.707 419.972Z" fill="#181855"/>
<path d="M271.232 336.817L242.515 290.39L244.289 282.394L238.285 289.227L271.826 345.244L237.691 399.944L274.185 349.702H279.969L274.185 343.186H284.004L271.232 336.817Z" fill="#181855"/>
<path d="M202.042 307.205C202.067 307.205 202.091 307.205 202.115 307.205C202.473 307.165 202.717 306.847 202.685 306.497C202.587 305.7 202.506 304.846 202.424 303.959C202.392 303.61 202.083 303.349 201.733 303.374C201.375 303.406 201.115 303.723 201.147 304.073C201.229 304.976 201.318 305.839 201.408 306.644C201.448 306.969 201.725 307.205 202.042 307.205Z" fill="white"/>
<path d="M201.349 261.072C201.357 261.072 201.365 261.072 201.365 261.072C201.715 261.072 202 260.795 202.008 260.445L202.041 259.372L200.739 259.884L200.723 260.413C200.715 260.763 200.991 261.056 201.349 261.072Z" fill="white"/>
<path d="M201.22 266.197C201.22 266.197 201.228 266.197 201.237 266.197C201.578 266.197 201.863 265.92 201.871 265.57C201.896 264.708 201.912 263.854 201.936 263.008C201.944 262.658 201.668 262.365 201.318 262.357C201.31 262.357 201.302 262.357 201.294 262.357C200.952 262.357 200.667 262.625 200.659 262.975C200.635 263.821 200.61 264.675 200.594 265.546C200.586 265.896 200.862 266.189 201.22 266.197Z" fill="white"/>
<path d="M201.057 276.463C201.414 276.463 201.699 276.178 201.699 275.829C201.707 274.974 201.724 274.112 201.732 273.266C201.732 272.908 201.455 272.623 201.097 272.615H201.089C200.739 272.615 200.455 272.9 200.446 273.25C200.438 274.104 200.43 274.958 200.422 275.82C200.414 276.17 200.699 276.463 201.057 276.463Z" fill="white"/>
<path d="M201.115 271.33C201.123 271.33 201.123 271.33 201.131 271.33C201.481 271.33 201.766 271.053 201.774 270.703C201.782 269.841 201.798 268.987 201.814 268.141C201.823 267.783 201.546 267.49 201.188 267.482H201.18C200.83 267.482 200.545 267.767 200.537 268.108C200.521 268.962 200.505 269.817 200.488 270.679C200.48 271.037 200.765 271.322 201.115 271.33Z" fill="white"/>
<path d="M204.669 328.836C204.311 328.852 204.043 329.153 204.059 329.503C204.092 330.357 204.124 331.212 204.149 332.058C204.157 332.407 204.442 332.684 204.791 332.684C204.791 332.684 204.8 332.684 204.808 332.684C205.158 332.668 205.442 332.375 205.426 332.025C205.41 331.171 205.377 330.309 205.336 329.446C205.32 329.096 205.027 328.82 204.669 328.836Z" fill="white"/>
<path d="M203.09 313.542C202.74 313.591 202.504 313.917 202.553 314.266C202.675 315.112 202.797 315.967 202.903 316.796C202.944 317.122 203.22 317.358 203.538 317.358C203.57 317.358 203.595 317.35 203.627 317.35C203.977 317.301 204.221 316.984 204.172 316.634C204.066 315.788 203.944 314.934 203.822 314.079C203.774 313.73 203.44 313.485 203.09 313.542Z" fill="white"/>
<path d="M203.724 324.411C203.797 325.265 203.863 326.127 203.911 326.957C203.936 327.299 204.22 327.559 204.554 327.559C204.57 327.559 204.578 327.559 204.595 327.559C204.953 327.535 205.213 327.234 205.197 326.876C205.14 326.03 205.075 325.167 205.001 324.305C204.977 323.955 204.668 323.695 204.31 323.719C203.96 323.752 203.7 324.061 203.724 324.411Z" fill="white"/>
<path d="M203.784 318.619C203.435 318.667 203.182 318.985 203.223 319.335C203.321 320.181 203.41 321.035 203.5 321.873C203.532 322.198 203.809 322.45 204.134 322.45C204.159 322.45 204.175 322.45 204.199 322.442C204.549 322.41 204.809 322.092 204.777 321.742C204.687 320.896 204.598 320.034 204.492 319.188C204.451 318.83 204.134 318.586 203.784 318.619Z" fill="white"/>
<path d="M201.587 302.097C201.603 302.097 201.62 302.097 201.628 302.097C201.986 302.072 202.254 301.771 202.23 301.413C202.173 300.6 202.116 299.746 202.067 298.867C202.051 298.509 201.742 298.232 201.4 298.257C201.042 298.281 200.773 298.582 200.79 298.932C200.839 299.819 200.895 300.681 200.952 301.503C200.969 301.844 201.253 302.097 201.587 302.097Z" fill="white"/>
<path d="M201.033 281.596C201.391 281.596 201.676 281.304 201.676 280.954C201.676 280.1 201.676 279.245 201.684 278.391C201.684 278.033 201.399 277.749 201.041 277.749C200.692 277.749 200.399 278.033 200.399 278.383C200.399 279.237 200.391 280.1 200.391 280.954C200.391 281.304 200.683 281.596 201.033 281.596Z" fill="white"/>
<path d="M201.066 286.721C201.415 286.721 201.7 286.428 201.7 286.079C201.692 285.225 201.684 284.37 201.684 283.516C201.676 283.158 201.391 282.874 201.041 282.874H201.033C200.683 282.882 200.398 283.166 200.398 283.516C200.398 284.378 200.407 285.241 200.415 286.087C200.423 286.437 200.708 286.721 201.057 286.721C201.057 286.721 201.057 286.721 201.066 286.721Z" fill="white"/>
<path d="M201.311 296.98C201.319 296.98 201.327 296.98 201.335 296.98C201.693 296.963 201.962 296.662 201.953 296.313C201.913 295.475 201.88 294.621 201.856 293.758C201.848 293.408 201.563 293.132 201.213 293.132C201.205 293.132 201.197 293.132 201.197 293.132C200.839 293.148 200.562 293.441 200.57 293.799C200.603 294.661 200.636 295.524 200.668 296.361C200.684 296.711 200.969 296.98 201.311 296.98Z" fill="white"/>
<path d="M201.141 291.855C201.149 291.855 201.157 291.855 201.157 291.855C201.515 291.847 201.791 291.546 201.783 291.196C201.767 290.35 201.751 289.496 201.735 288.633C201.726 288.283 201.442 288.007 201.092 288.007H201.084C200.726 288.015 200.449 288.3 200.449 288.658C200.465 289.52 200.482 290.382 200.506 291.228C200.514 291.578 200.799 291.855 201.141 291.855Z" fill="white"/>
<path d="M202.287 308.474C201.938 308.531 201.693 308.857 201.75 309.206C201.791 309.467 201.832 309.711 201.872 309.955C201.97 310.557 202.068 311.151 202.165 311.744C202.214 312.054 202.491 312.281 202.8 312.281C202.832 312.281 202.865 312.281 202.897 312.273C203.247 312.216 203.491 311.891 203.434 311.541C203.337 310.947 203.239 310.345 203.133 309.743C203.093 309.507 203.06 309.263 203.019 309.011C202.963 308.661 202.637 308.425 202.287 308.474Z" fill="white"/>
<path d="M190.109 414.668C189.759 414.587 189.417 414.807 189.344 415.148L188.783 417.662C188.701 418.004 188.921 418.345 189.271 418.427C189.311 418.435 189.36 418.443 189.409 418.443C189.702 418.443 189.962 418.24 190.035 417.939L190.589 415.425C190.67 415.083 190.45 414.742 190.109 414.668Z" fill="white"/>
<path d="M203.175 354.38C202.833 354.315 202.491 354.551 202.434 354.901C202.288 355.722 202.133 356.544 201.971 357.406C201.898 357.756 202.125 358.089 202.475 358.163C202.516 358.171 202.556 358.171 202.597 358.171C202.898 358.171 203.167 357.959 203.224 357.65C203.394 356.78 203.549 355.95 203.695 355.12C203.76 354.77 203.525 354.437 203.175 354.38Z" fill="white"/>
<path d="M202.213 359.432C201.871 359.359 201.53 359.578 201.457 359.928C201.31 360.677 201.131 361.515 200.936 362.442C200.863 362.792 201.082 363.133 201.424 363.207C201.473 363.215 201.514 363.223 201.562 363.223C201.855 363.223 202.124 363.011 202.189 362.71C202.384 361.783 202.563 360.937 202.718 360.189C202.791 359.839 202.563 359.505 202.213 359.432Z" fill="white"/>
<path d="M201.155 364.467C200.814 364.394 200.472 364.614 200.399 364.963C200.228 365.761 200.049 366.599 199.854 367.477C199.781 367.819 200 368.16 200.35 368.234C200.391 368.25 200.44 368.25 200.48 368.25C200.781 368.25 201.042 368.047 201.107 367.746C201.302 366.867 201.481 366.029 201.652 365.232C201.725 364.882 201.505 364.54 201.155 364.467Z" fill="white"/>
<path d="M198.983 374.522C198.641 374.449 198.291 374.669 198.218 375.01L197.673 377.516C197.592 377.866 197.811 378.208 198.161 378.281C198.21 378.297 198.251 378.297 198.3 378.297C198.592 378.297 198.861 378.094 198.926 377.793L199.471 375.287C199.552 374.937 199.325 374.596 198.983 374.522Z" fill="white"/>
<path d="M200.072 369.495C199.731 369.422 199.389 369.641 199.316 369.991L198.771 372.497C198.689 372.847 198.909 373.188 199.259 373.262C199.3 373.27 199.348 373.278 199.397 373.278C199.69 373.278 199.959 373.074 200.024 372.773L200.569 370.26C200.642 369.91 200.422 369.576 200.072 369.495Z" fill="white"/>
<path d="M204.823 333.961C204.465 333.961 204.18 334.254 204.188 334.604C204.188 334.791 204.188 334.978 204.188 335.165C204.188 335.824 204.18 336.5 204.172 337.158C204.164 337.508 204.449 337.801 204.798 337.809C204.807 337.809 204.807 337.809 204.807 337.809C205.156 337.809 205.449 337.533 205.449 337.175C205.466 336.516 205.466 335.832 205.466 335.165C205.466 334.978 205.466 334.791 205.466 334.604C205.466 334.246 205.181 333.961 204.823 333.961Z" fill="white"/>
<path d="M204.768 339.086C204.401 339.078 204.117 339.355 204.1 339.704C204.068 340.55 204.019 341.405 203.97 342.251C203.946 342.6 204.214 342.91 204.564 342.934C204.58 342.934 204.597 342.934 204.605 342.934C204.947 342.934 205.223 342.674 205.247 342.332C205.304 341.478 205.345 340.616 205.378 339.753C205.394 339.403 205.117 339.102 204.768 339.086Z" fill="white"/>
<path d="M203.936 349.312C203.587 349.263 203.261 349.507 203.212 349.857C203.107 350.687 202.985 351.541 202.846 352.379C202.797 352.729 203.033 353.062 203.383 353.111C203.416 353.119 203.448 353.119 203.481 353.119C203.79 353.119 204.066 352.899 204.115 352.582C204.245 351.728 204.376 350.866 204.49 350.028C204.53 349.678 204.286 349.353 203.936 349.312Z" fill="white"/>
<path d="M204.474 344.211C204.116 344.179 203.807 344.439 203.775 344.789C203.701 345.635 203.62 346.489 203.522 347.327C203.49 347.677 203.742 347.994 204.092 348.035C204.116 348.035 204.141 348.043 204.165 348.043C204.49 348.043 204.767 347.799 204.8 347.465C204.897 346.619 204.979 345.757 205.052 344.903C205.084 344.553 204.824 344.244 204.474 344.211Z" fill="white"/>
<path d="M187.863 424.707C187.521 424.626 187.18 424.845 187.098 425.195L186.691 427.025C187.017 427.351 187.383 427.676 187.79 427.993V427.985L188.351 425.472C188.432 425.122 188.213 424.78 187.863 424.707Z" fill="white"/>
<path d="M192.339 404.63C191.997 404.556 191.655 404.768 191.574 405.118L191.021 407.623C190.94 407.973 191.159 408.315 191.501 408.388C191.55 408.404 191.598 408.404 191.647 408.404C191.94 408.404 192.2 408.201 192.274 407.9L192.827 405.394C192.908 405.053 192.689 404.711 192.339 404.63Z" fill="white"/>
<path d="M188.985 419.68C188.643 419.606 188.302 419.826 188.22 420.168L187.659 422.681C187.586 423.023 187.797 423.365 188.147 423.446C188.196 423.454 188.237 423.462 188.285 423.462C188.578 423.462 188.847 423.259 188.912 422.958L189.473 420.444C189.546 420.103 189.335 419.761 188.985 419.68Z" fill="white"/>
<path d="M191.223 409.649C190.881 409.567 190.531 409.787 190.458 410.137L189.897 412.642C189.824 412.984 190.043 413.326 190.385 413.407C190.434 413.415 190.483 413.423 190.523 413.423C190.816 413.423 191.085 413.22 191.15 412.919L191.711 410.413C191.784 410.064 191.565 409.722 191.223 409.649Z" fill="white"/>
<path d="M195.672 389.58C195.33 389.499 194.988 389.718 194.907 390.068L194.354 392.574C194.281 392.915 194.5 393.257 194.842 393.338C194.891 393.346 194.94 393.355 194.98 393.355C195.273 393.355 195.542 393.143 195.607 392.85L196.16 390.345C196.241 389.995 196.022 389.653 195.672 389.58Z" fill="white"/>
<path d="M197.887 379.541C197.537 379.468 197.195 379.688 197.122 380.03L196.569 382.543C196.496 382.885 196.715 383.227 197.057 383.3C197.106 383.316 197.155 383.316 197.195 383.316C197.496 383.316 197.756 383.113 197.822 382.812L198.375 380.306C198.448 379.956 198.228 379.615 197.887 379.541Z" fill="white"/>
<path d="M196.777 384.561C196.436 384.488 196.094 384.699 196.013 385.049L195.459 387.554C195.386 387.904 195.606 388.246 195.947 388.319C195.996 388.335 196.045 388.335 196.086 388.335C196.387 388.335 196.647 388.132 196.712 387.831L197.265 385.326C197.347 384.976 197.127 384.634 196.777 384.561Z" fill="white"/>
<path d="M193.452 399.619C193.11 399.537 192.769 399.757 192.687 400.099L192.134 402.612C192.053 402.954 192.272 403.296 192.622 403.377C192.663 403.385 192.712 403.393 192.761 403.393C193.053 403.393 193.314 403.19 193.379 402.889L193.94 400.375C194.013 400.033 193.802 399.692 193.452 399.619Z" fill="white"/>
<path d="M194.567 394.599C194.217 394.518 193.875 394.738 193.802 395.088L193.241 397.593C193.167 397.935 193.387 398.285 193.729 398.358C193.778 398.366 193.826 398.374 193.867 398.374C194.168 398.374 194.428 398.171 194.493 397.87L195.055 395.364C195.128 395.014 194.908 394.673 194.567 394.599Z" fill="white"/>
<path d="M241.994 207.87C230.165 194.154 239.903 189.916 232.98 172.865C226.757 157.547 201.034 159.442 196.828 161.614C154.209 173.117 182.478 200.288 190.117 223.448C194.559 236.903 185.708 267.019 188.514 274.837C214.148 256.688 225.04 275.422 264.877 238.075C250.137 227.695 253.814 221.585 241.994 207.87Z" fill="#F06361"/>
<path d="M206.379 263.577C203.572 263.024 200.522 262.162 198.951 259.77C197.707 257.867 197.699 255.442 197.731 253.173C197.804 247.796 197.886 242.426 197.959 237.049C197.983 235.162 198.171 232.974 199.732 231.916C200.749 231.233 202.425 230.761 202.197 229.557C200.831 229.972 199.334 229.947 197.983 229.492C200.863 227.531 203.743 225.579 206.623 223.627C204.109 223.464 201.595 223.309 199.082 223.147C198.211 223.098 197.292 223.033 196.552 222.569C195.722 222.048 195.25 221.129 194.819 220.251C191.719 213.962 184.349 210.521 181.242 204.241C184.504 210.676 188.059 217.208 190.117 223.448C194.559 236.903 185.708 267.019 188.514 274.836C198.748 267.588 206.631 266.221 214.945 264.814C212.073 264.545 209.21 264.131 206.379 263.577ZM181.242 204.241L181.234 204.225L175.441 210.041C177.272 219.356 179.102 228.695 179.948 238.147C181.396 254.23 180.078 270.931 185.781 286.038C186.106 286.9 186.497 287.803 187.27 288.3C188.579 289.137 190.296 288.446 191.679 287.73C194.803 286.095 197.878 284.362 200.953 282.638C211.553 276.658 222.161 270.687 232.76 264.716L181.242 204.241Z" fill="#EC4A4A"/>
<path d="M235.46 184.685C236.094 189.468 233.597 194.512 229.415 196.903C224.209 199.881 217.652 198.685 211.86 200.247C211.274 200.401 210.681 200.605 210.274 201.044C208.891 202.533 210.851 204.835 212.755 205.518C217.644 207.267 223.054 205.925 228.211 206.454C234.451 207.096 240.105 210.472 244.88 214.54C246.523 215.939 248.085 217.428 249.615 218.949C247.906 215.768 245.718 212.197 241.992 207.869C233.499 198.018 236.127 193.055 235.72 184.725L235.46 184.685Z" fill="#EC4A4A"/>
<path d="M166.982 185.319L159.725 189.573L156.276 196.285L141.918 224.285C141.918 224.285 150.077 225.392 160.555 226.108C160.555 226.108 164.118 220.926 168.731 213.726C172.131 208.422 176.093 202.028 179.607 195.813C182.235 191.176 184.61 186.637 186.311 182.732L181.796 176.647L166.982 185.319Z" fill="#FFCECE"/>
<path d="M159.727 189.573L156.277 196.285L168.732 213.726C172.132 208.422 176.094 202.028 179.608 195.813L166.983 185.319L159.727 189.573Z" fill="#FF92A6"/>
<path d="M171.367 286.941C170.635 285.477 167.194 283.891 164.208 283.76C164.208 283.76 164.599 235.87 160.637 226.116C155.358 215.549 142 224.294 142 224.294L150.81 285.575C150.81 285.575 145.929 293.823 148.101 300.03C149.232 302.211 153.316 307.018 164.876 305.001C166.258 304.757 167.137 303.699 166.714 302.861C163.159 295.93 164.835 292.741 166.071 290.171C166.34 289.113 171.977 295.467 177.273 290.895C174.703 289.731 172.108 288.397 171.367 286.941Z" fill="#FFCECE"/>
<path d="M176.977 290.765C176.212 291.505 175.163 291.993 174.097 292.123C172.234 292.343 170.379 291.684 168.695 290.854C167.727 290.366 166.718 289.813 165.636 289.87C163.538 289.976 162.26 292.351 162.147 294.45C161.951 297.875 163.855 301.299 166.783 303.057C166.767 302.992 166.735 302.926 166.71 302.861C163.155 295.93 164.831 292.741 166.068 290.171C166.336 289.113 171.974 295.467 177.269 290.895C177.172 290.854 177.074 290.813 176.977 290.765Z" fill="#FF92A6"/>
<path d="M159.633 300.461C159.812 302.178 160.259 303.87 160.951 305.448C161.683 305.416 162.456 305.342 163.269 305.237C161.406 304.317 160.015 302.495 159.633 300.461Z" fill="#FF92A6"/>
<path d="M158.315 305.44C157.16 304.082 156.192 302.561 155.444 300.934C155.314 302.357 155.493 303.805 155.948 305.156C156.68 305.294 157.461 305.392 158.315 305.44Z" fill="#FF92A6"/>
<path d="M152.264 303.935C151.792 302.918 151.442 301.828 151.247 300.722C151.133 301.568 151.101 302.422 151.133 303.284C151.475 303.512 151.857 303.732 152.264 303.935Z" fill="#FF92A6"/>
<path d="M187.28 169.122C179.917 163.672 161.126 180.479 156.773 192.844L176.273 212.156C176.273 212.156 199.775 178.364 187.28 169.122Z" fill="#F06361"/>
<path d="M188.676 188.614C187.252 191.575 185.21 194.235 182.648 196.309C180.216 198.278 177.23 199.767 174.09 199.759C170.332 199.742 166.947 197.627 163.604 195.886C161.416 194.756 159.154 193.755 156.844 192.909L176.27 212.156C176.27 212.156 184.56 200.239 188.676 188.614Z" fill="#EC4A4A"/>
<path d="M209.233 159.946C203.515 159.71 198.642 160.515 197.007 161.353C195.258 161.825 193.631 162.33 192.109 162.85C192.614 165.161 196.616 166.584 201.261 166.039C206.045 165.478 209.697 163.037 209.412 160.597C209.38 160.369 209.323 160.149 209.233 159.946Z" fill="#FFCECE"/>
<path d="M172.782 137.314C172.782 137.314 170.593 139.031 171.383 139.853C172.172 140.666 180.624 143.521 180.624 143.521L180.77 139.023L174.677 137.762L172.782 137.314Z" fill="#83A1F8"/>
<path d="M195.51 133.418C195.339 132.019 194.062 131.002 192.663 131.173L181.615 132.482C180.216 132.653 179.207 133.93 179.378 135.338L180.517 144.961C180.688 146.361 181.973 147.377 183.373 147.207L194.412 145.897C195.811 145.726 196.82 144.441 196.657 143.041L195.51 133.418Z" fill="#83A1F8"/>
<path d="M175.028 137.038C173.027 138.535 172.474 141.187 173.8 142.96C175.126 144.733 177.827 144.953 179.836 143.456C181.837 141.959 182.391 139.299 181.065 137.526C179.739 135.752 177.038 135.533 175.028 137.038Z" fill="white"/>
<path d="M215.735 132.352C215.483 130.489 213.758 129.123 211.904 129.31L186.604 131.897C184.741 132.084 183.431 133.759 183.683 135.622L184.692 143.131C184.944 144.994 186.669 146.352 188.524 146.165L213.832 143.587C215.686 143.399 217.004 141.724 216.752 139.861L215.735 132.352ZM213.197 142.862L195.626 144.652L190.118 145.214C188.263 145.401 186.539 144.034 186.287 142.171L185.424 135.785C185.172 133.922 186.49 132.246 188.345 132.059L200.873 130.782V130.774L207.966 130.009L207.95 130.058L211.416 129.708C213.278 129.513 215.003 130.888 215.255 132.743L216.118 139.137C216.37 140.991 215.052 142.667 213.197 142.862Z" fill="white"/>
<path d="M185.425 135.785L186.288 142.171C186.54 144.034 188.265 145.401 190.119 145.214L195.627 144.652L195.619 144.604L199.93 130.888L200.874 130.79V130.782L188.346 132.059C186.491 132.247 185.173 133.922 185.425 135.785Z" fill="#3B3691"/>
<path d="M215.255 132.743C215.003 130.888 213.278 129.513 211.415 129.708L207.95 130.058L207.925 130.14L208.544 130.091L208.552 130.05L210.764 129.855L206.298 143.351L205.355 143.44V143.465L203.321 143.676L203.288 143.758L202.353 143.855L202.345 143.871L195.617 144.604L195.625 144.652L213.197 142.863C215.052 142.667 216.369 140.992 216.117 139.137L215.255 132.743Z" fill="#3B3691"/>
<path d="M200.872 130.79L199.929 130.888L195.617 144.603L202.345 143.871L202.353 143.855L196.561 144.481L200.872 130.79Z" fill="#3B3691"/>
<path d="M200.874 130.79L196.562 144.481L202.355 143.855L207.016 130.156L201.769 130.693L200.874 130.79Z" fill="#19195D"/>
<path d="M202.352 143.855L203.287 143.757L203.32 143.676L203.157 143.692L207.607 130.172L207.924 130.139L207.948 130.058L207.013 130.156L202.352 143.855Z" fill="#19195D"/>
<path d="M203.16 143.692L203.323 143.676L207.927 130.139L207.61 130.172L203.16 143.692Z" fill="#19195D"/>
<path d="M203.32 143.676L205.354 143.465V143.44L204.101 143.57L208.543 130.091L207.925 130.14L203.32 143.676Z" fill="#3B3691"/>
<path d="M204.102 143.57L205.354 143.44L209.812 129.977L208.543 130.09L204.102 143.57Z" fill="#19195D"/>
<path d="M200.871 130.79L201.766 130.692L200.871 130.782V130.79Z" fill="#19195D"/>
<path d="M200.871 130.782L201.766 130.693L207.021 130.123L207.013 130.156L207.949 130.058L207.965 130.009L200.871 130.774V130.782Z" fill="#19195D"/>
<path d="M208.544 130.09L209.813 129.977L205.355 143.44L206.299 143.35L210.765 129.854L208.553 130.05L208.544 130.09Z" fill="#19195D"/>
<path d="M207.013 130.156L207.021 130.123L201.766 130.693L207.013 130.156Z" fill="#19195D"/>
<path d="M207.566 129.741L207.884 129.716L207.957 130.57L207.64 130.595L207.2 130.033L207.566 129.741ZM207.2 130.033L207.29 129.765L207.566 129.741L207.2 130.033ZM202.751 143.562L207.2 130.033L208.014 130.302L203.564 143.83L203.198 144.115L202.751 143.562ZM203.198 144.115L202.539 144.188L202.751 143.562L203.198 144.115ZM203.361 144.099L203.198 144.115L203.109 143.269L203.271 143.253L203.361 144.099ZM205.394 143.887L203.361 144.099L203.271 143.253L205.305 143.041L205.769 143.562L205.394 143.887ZM205.769 143.562L205.695 143.855L205.394 143.887L205.769 143.562ZM205.769 143.546V143.562L204.939 143.367V143.342L204.955 143.31L205.769 143.546ZM204.939 143.342L204.947 143.334L204.955 143.31L204.939 143.342ZM210.218 130.107L205.761 143.578L204.955 143.31L209.413 129.838L209.779 129.554L210.218 130.107ZM209.779 129.554L210.422 129.497L210.218 130.107L209.779 129.554ZM208.502 129.659L209.779 129.554L209.852 130.4L208.575 130.513L208.502 129.659ZM207.884 129.716L208.502 129.659L208.575 130.513L207.957 130.57L207.884 129.716Z" fill="white"/>
<path d="M199.88 130.465L200.824 130.359L200.913 131.213L199.97 131.319L199.522 130.766L199.88 130.465ZM199.522 130.766L199.604 130.497L199.88 130.465L199.522 130.766ZM195.211 144.473L199.522 130.766L200.336 131.018L196.024 144.725L195.666 145.026L195.211 144.473ZM195.666 145.026L195.016 145.1L195.211 144.473L195.666 145.026ZM202.394 144.294L195.666 145.026L195.569 144.18L202.296 143.44L202.76 143.985L202.394 144.294ZM202.76 143.985L202.679 144.262L202.394 144.294L202.76 143.985ZM202.76 143.969V143.985L201.93 143.757L201.938 143.741L201.947 143.717L202.76 143.969ZM207.413 130.294L202.752 143.993L201.947 143.717L206.608 130.017L207.413 130.294ZM207.43 130.261L207.413 130.294L206.608 130.017L206.616 129.985L206.974 129.7L207.43 130.261ZM206.974 129.7L207.649 129.627L207.43 130.261L206.974 129.7ZM201.719 130.27L206.974 129.7L207.072 130.546L201.816 131.116H201.808L201.719 130.27ZM201.816 131.116H201.808L201.873 131.108L201.816 131.116ZM200.824 130.359L201.719 130.27L201.808 131.116L200.913 131.213L200.824 130.359Z" fill="white"/>
<path d="M174.603 137.347C172.838 138.681 172.472 141.187 173.798 142.96C175.124 144.734 177.638 145.1 179.411 143.774C181.184 142.448 181.542 139.934 180.216 138.161C178.89 136.387 176.385 136.021 174.603 137.347Z" fill="#3B3691"/>
<path d="M175.702 138.811C174.742 139.536 174.539 140.902 175.263 141.87C175.987 142.83 177.353 143.034 178.313 142.31C179.281 141.586 179.477 140.219 178.753 139.259C178.037 138.291 176.67 138.096 175.702 138.811Z" fill="#83A1F8"/>
<path fill-rule="evenodd" clip-rule="evenodd" d="M360.983 198.091C343.924 200.491 332.047 216.281 334.455 233.34C336.863 250.399 352.644 262.276 369.703 259.86C386.762 257.452 398.64 241.67 396.232 224.611C393.824 207.552 378.034 195.675 360.983 198.091Z" fill="#FFC94F"/>
<path d="M396.689 224.611C399.097 241.67 387.22 257.452 370.16 259.86C353.101 262.276 337.32 250.399 334.912 233.34C332.504 216.281 344.381 200.491 361.44 198.091C378.499 195.675 394.281 207.552 396.689 224.611Z" fill="#FFC94F"/>
<path fill-rule="evenodd" clip-rule="evenodd" d="M395.241 218.648C394.647 218.9 394.077 219.234 393.581 219.543C392.255 220.356 391.108 221.186 390.425 222.024C389.156 223.586 388.733 225.742 387.879 227.474C387.179 228.874 386.349 230.134 385.292 231.054C383.559 232.567 380.728 233.332 379.524 235.349C378.906 236.374 378.881 237.57 378.588 238.676C377.97 240.995 376.766 242.711 375.489 244.249C374.854 245.005 373.992 245.705 373.431 246.6C372.731 247.73 372.398 249.097 371.739 250.269C370.445 252.546 368.932 254.507 366.768 256.093C365.727 256.85 363.929 257.842 362.815 257.379C360.667 256.484 362.92 251.651 363.474 250.749C364.816 248.552 366.89 246.526 368.761 244.582C369.689 243.63 370.584 242.573 371.47 241.564C372.316 240.588 373.854 239.636 373.504 238.107C372.398 237.48 371.218 238.554 370.323 239.156C365.507 242.369 362.676 246.852 358.056 250.293C356.868 251.18 351.279 254.995 350.36 251.757C349.904 250.147 351.621 248.235 352.817 247.08C354.192 245.746 355.941 244.712 357.169 243.915C360.415 241.8 363.661 239.913 366.557 238.229C370.73 235.796 376.376 232.835 380.411 229.598C381.745 228.524 383.526 227.068 383.982 225.668C384.315 224.66 384.088 223.675 384.372 222.797C384.901 221.17 386.764 219.445 387.935 218.542C389.758 217.127 392.101 216.273 393.475 214.564C391.637 211.034 389.156 207.926 386.203 205.38C385.406 205.624 384.673 205.933 384.071 206.25C382.062 207.324 380.305 208.894 378.198 210.659C376.49 212.091 373.748 214.003 373.553 216.256C373.309 219.079 375.367 219.746 375.212 222.52C375.09 224.578 373.008 226.539 371.771 227.653C370.095 229.158 368.322 230.069 366.874 231.379C365.768 232.388 364.938 233.649 363.954 234.633C361.879 236.708 359.382 238.066 356.201 238.961C354.655 239.4 352.76 239.506 351.702 240.368C350.759 241.141 350.775 242.052 350.425 243.037C350.092 243.972 349.636 245.087 349.148 245.819C347.684 248.04 344.527 249.113 341.786 248.894C348.473 256.931 359.048 261.43 370.161 259.86C370.462 259.819 370.763 259.77 371.064 259.721C371.487 257.867 372.764 256.386 373.805 254.979C380.874 245.428 391.751 239.482 396.982 228.158C396.949 226.986 396.86 225.799 396.689 224.611C396.396 222.545 395.908 220.551 395.241 218.648ZM337.596 242.329C338.003 241.629 338.524 241.027 339.02 240.596C340.736 239.091 343.771 237.92 346.675 236.821C352.508 234.609 358.511 233.624 362.994 230.126C365.206 228.402 367.134 225.921 367.387 223.098C367.46 222.325 367.468 221.463 367.24 220.787C366.663 219.128 364.401 218.965 364.311 217.42C364.255 216.614 365.239 215.06 365.8 214.304C366.532 213.295 367.256 212.563 367.956 211.839C371.267 208.406 374.196 206.258 378.068 203.379C378.702 202.907 379.678 202.24 380.549 201.483C378.344 200.304 375.993 199.376 373.545 198.75C370.51 200.499 368.102 203.135 366.305 205.689C365.125 207.373 364.23 209.325 362.863 210.936C360.813 213.368 357.795 214.743 354.916 216.484C353.329 217.436 351.1 218.868 351.475 221.398C351.808 223.708 354.753 224.595 354.997 227.181C355.152 228.841 354.354 229.972 353.411 231.07C352.776 231.802 351.312 233.421 349.807 233.12C348.042 232.77 348.839 230.143 349.286 228.939C349.888 227.352 350.832 226.279 350.531 224.505C347.667 223.976 345.975 226.287 344.527 227.808C342.973 229.435 341.412 231.241 339.532 232.534C338.564 233.21 336.62 234.324 335.026 234.056C335.506 236.984 336.384 239.766 337.596 242.329ZM334.676 226.824C338.158 220.535 344.6 217.265 350.336 213.474C354.216 210.912 357.942 208.186 361.554 205.111C363.88 203.126 366.719 200.686 368.574 197.896C366.24 197.692 363.856 197.749 361.44 198.091C361.001 198.148 360.569 198.221 360.138 198.302C359.675 198.75 359.235 199.197 358.804 199.645C356.779 201.743 354.818 203.964 352.963 206.039C350.124 209.203 347.114 212.53 343.185 214.597C341.924 215.264 340.118 216.232 338.45 215.231C338.393 214.808 338.385 214.401 338.426 214.019C336.303 217.899 334.985 222.252 334.676 226.824Z" fill="#FFC94F"/>
<path fill-rule="evenodd" clip-rule="evenodd" d="M344.282 206.389C344.111 208.26 345.03 209.276 346.828 208.463C347.503 208.162 348.13 207.3 348.455 206.999C350.782 204.851 352.376 202.882 353.963 200.393C354.044 200.271 354.125 200.141 354.207 200.011C350.464 201.499 347.113 203.688 344.282 206.389Z" fill="#FFC94F"/>
<path fill-rule="evenodd" clip-rule="evenodd" d="M366.956 217.485C368.559 218.005 369.25 216.793 369.901 215.662C370.357 214.881 370.812 213.938 370.406 213.116C368.299 211.815 366.062 215.671 366.956 217.485Z" fill="#FFC94F"/>
<path fill-rule="evenodd" clip-rule="evenodd" d="M395.037 239.148C392.735 239.832 391.238 241.532 389.587 243.11C387.472 245.136 384.999 248.072 383.437 250.61C382.656 251.879 381.208 254.043 381.541 255.5C381.566 255.622 381.606 255.727 381.671 255.841C388.074 252.05 392.914 246.079 395.314 239.091C395.216 239.108 395.118 239.124 395.037 239.148Z" fill="#FFC94F"/>
<path fill-rule="evenodd" clip-rule="evenodd" d="M365.563 250.602C364.977 251.635 364.326 253.042 365.4 253.693C366.563 253.913 367.019 252.644 367.564 251.668C368.133 250.659 369.191 249.113 368.499 248.235C367.019 247.657 366.254 249.382 365.563 250.602Z" fill="#FFC94F"/>
<path fill-rule="evenodd" clip-rule="evenodd" d="M362.822 197.928C375.154 200.662 385.079 210.781 386.95 224.017C389.358 241.076 375.626 256.646 360.43 259.274C359.966 259.347 359.503 259.388 359.039 259.429C362.594 260.218 366.344 260.405 370.16 259.86C387.219 257.452 399.096 241.67 396.688 224.611C394.345 208.016 379.344 196.334 362.822 197.928Z" fill="#D88F00"/>
<path fill-rule="evenodd" clip-rule="evenodd" d="M322.218 335.93C316.215 341.145 315.58 350.248 320.803 356.251C326.017 362.255 335.12 362.881 341.124 357.667C347.128 352.444 347.762 343.349 342.539 337.346C337.317 331.342 328.222 330.708 322.218 335.93Z" fill="#FFC94F"/>
<path d="M341.238 357.846C335.235 363.06 326.14 362.426 320.917 356.422C315.695 350.419 316.337 341.324 322.333 336.101C328.336 330.887 337.439 331.521 342.654 337.525C347.877 343.528 347.242 352.623 341.238 357.846Z" fill="#FFC94F"/>
<path fill-rule="evenodd" clip-rule="evenodd" d="M345.446 342.381C344.006 341.649 342.379 341.373 340.931 341.316C339.987 341.283 339.003 341.43 338.035 341.308C336.578 341.121 335.285 340.299 333.894 339.616C333.121 339.241 332.015 338.745 331.12 339.518C330.315 340.234 330.705 341.6 329.769 342.341C329.159 342.813 328.525 342.796 327.866 342.699C327.418 342.642 326.426 342.479 326.166 341.82C325.857 341.047 327.077 340.698 327.654 340.567C328.419 340.405 329.07 340.502 329.68 339.941C329.168 338.696 327.85 338.623 326.89 338.444C325.873 338.249 324.783 338.094 323.807 337.696C323.302 337.484 322.383 337.012 322.09 336.329C321.073 337.256 320.219 338.29 319.528 339.404C319.902 339.388 320.268 339.437 320.561 339.518C321.569 339.811 322.79 340.689 323.945 341.535C326.263 343.244 328.159 345.318 330.632 346.18C331.86 346.595 333.308 346.725 334.463 346.115C334.781 345.945 335.122 345.733 335.318 345.473C335.822 344.83 335.318 343.919 335.887 343.496C336.188 343.268 337.034 343.26 337.473 343.284C338.043 343.317 338.506 343.415 338.97 343.504C341.126 343.927 342.696 344.521 344.787 345.294C345.128 345.424 345.633 345.635 346.137 345.782C346.048 344.627 345.812 343.488 345.446 342.381ZM324.799 334.377C328.11 334.149 330.998 335.817 333.91 337.094C335.871 337.948 337.864 338.704 339.963 339.331C341.321 339.738 342.973 340.226 344.526 340.242C344.014 339.282 343.396 338.371 342.655 337.525C342.525 337.37 342.387 337.224 342.249 337.069C341.956 337.004 341.671 336.947 341.394 336.898C340.068 336.638 338.718 336.435 337.449 336.24C335.505 335.939 333.463 335.605 331.673 334.604C331.095 334.279 330.274 333.823 330.241 332.929C330.388 332.798 330.542 332.693 330.705 332.611C328.663 332.766 326.646 333.352 324.799 334.377ZM321.203 356.74C322.025 356.439 322.92 356.561 323.725 356.61C329.2 356.951 334.236 359.668 339.938 358.847C340.386 358.546 340.817 358.212 341.24 357.846C341.964 357.212 342.615 356.52 343.184 355.78C342.94 355.617 342.663 355.479 342.419 355.365C341.777 355.056 341.167 354.82 340.67 354.771C339.743 354.665 338.799 355.048 337.913 355.145C337.197 355.235 336.505 355.227 335.879 355.048C334.854 354.755 333.845 353.852 332.763 353.892C332.21 353.909 331.746 354.202 331.242 354.364C330.193 354.706 329.224 354.673 328.305 354.568C327.85 354.511 327.362 354.348 326.882 354.364C326.263 354.372 325.653 354.584 325.027 354.625C323.823 354.698 322.684 354.608 321.521 354.161C320.967 353.949 320.138 353.502 320.032 352.957C319.837 351.899 322.277 351.558 322.765 351.541C323.953 351.517 325.263 351.81 326.483 352.046C327.085 352.16 327.728 352.241 328.338 352.331C328.923 352.42 329.68 352.778 330.184 352.249C330.152 351.672 329.436 351.484 328.98 351.281C326.524 350.224 324.075 350.256 321.586 349.329C320.943 349.093 318.063 347.889 319.088 346.717C319.593 346.14 320.764 346.319 321.512 346.49C322.375 346.693 323.213 347.108 323.831 347.384C325.466 348.108 327.012 348.889 328.395 349.589C330.38 350.598 332.95 352.038 335.22 352.794C335.968 353.038 336.977 353.364 337.636 353.185C338.108 353.063 338.433 352.729 338.848 352.615C339.613 352.412 340.744 352.705 341.394 352.924C342.395 353.282 343.314 353.974 344.323 354.071C345.226 352.477 345.812 350.736 346.056 348.946C345.763 348.702 345.454 348.499 345.185 348.344C344.258 347.832 343.208 347.547 341.996 347.173C341.012 346.872 339.588 346.294 338.661 346.782C337.506 347.393 337.766 348.361 336.652 348.995C335.822 349.467 334.545 349.158 333.796 348.955C332.796 348.686 331.998 348.222 331.128 347.995C330.461 347.824 329.761 347.816 329.135 347.677C327.809 347.401 326.654 346.774 325.507 345.766C324.954 345.277 324.433 344.57 323.831 344.375C323.294 344.204 322.944 344.44 322.472 344.553C322.033 344.659 321.488 344.765 321.081 344.757C319.853 344.749 318.641 343.797 318.039 342.674C316.607 347.287 317.518 352.518 320.919 356.422C321.008 356.536 321.106 356.634 321.203 356.74Z" fill="#FFC94F"/>
<path fill-rule="evenodd" clip-rule="evenodd" d="M335.13 332.961C334.365 333.368 334.203 333.978 334.967 334.474C335.252 334.653 335.748 334.686 335.944 334.734C337.359 335.1 338.522 335.214 339.881 335.206C339.954 335.206 340.027 335.206 340.092 335.206C338.579 334.132 336.887 333.384 335.13 332.961Z" fill="#FFC94F"/>
<path fill-rule="evenodd" clip-rule="evenodd" d="M336.531 344.537C336.735 345.286 337.377 345.253 337.979 345.221C338.394 345.196 338.874 345.139 339.094 344.773C339.061 343.626 337.011 343.732 336.531 344.537Z" fill="#FFC94F"/>
<path fill-rule="evenodd" clip-rule="evenodd" d="M335.186 360.856C334.348 360.132 333.315 359.986 332.29 359.742C330.972 359.432 329.215 359.213 327.832 359.245C327.149 359.262 325.945 359.245 325.465 359.734C325.424 359.774 325.392 359.823 325.367 359.872C328.442 361.401 331.973 361.775 335.284 360.954C335.251 360.913 335.219 360.881 335.186 360.856Z" fill="#FFC94F"/>
<path fill-rule="evenodd" clip-rule="evenodd" d="M323.35 352.315C322.805 352.347 322.097 352.453 322.114 353.03C322.317 353.535 322.927 353.396 323.44 353.364C323.976 353.331 324.839 353.348 325.002 352.86C324.855 352.144 323.993 352.282 323.35 352.315Z" fill="#FFC94F"/>
<path fill-rule="evenodd" clip-rule="evenodd" d="M339.017 353.925C333.013 359.148 323.536 357.732 318.704 352.509C318.549 352.347 318.419 352.176 318.289 352.005C318.875 353.583 319.753 355.08 320.917 356.422C326.139 362.426 335.234 363.06 341.238 357.846C347.079 352.77 347.835 344.016 343.068 338.021C345.102 343.488 343.678 349.874 339.017 353.925Z" fill="#D88F00" fill-opacity="0.301961"/>
</svg>
